<?xml version="1.0" standalone="no"?>
<!DOCTYPE svg PUBLIC "-//W3C//DTD SVG 20010904//EN"
 "http://www.w3.org/TR/2001/REC-SVG-20010904/DTD/svg10.dtd">
<svg version="1.0" xmlns="http://www.w3.org/2000/svg"
 width="703.000000pt" height="673.000000pt" viewBox="0 0 703.000000 673.000000"
 preserveAspectRatio="xMidYMid meet">
<metadata>
Created by potrace 1.16, written by Peter Selinger 2001-2019
</metadata>
<g transform="translate(0.000000,673.000000) scale(0.100000,-0.100000)"
fill="#000000" stroke="none">
<path d="M4420 6320 c0 -46 -25 -86 -61 -99 -39 -14 -31 -24 19 -25 35 -1 37
-3 46 -43 6 -24 14 -43 18 -43 5 0 16 16 24 36 11 27 25 40 54 51 44 18 44 33
1 33 -43 0 -71 29 -78 78 -6 48 -23 57 -23 12z"/>
<path d="M707 6122 c-10 -11 -17 -35 -16 -58 l0 -39 12 35 c11 31 16 35 45 35
45 0 63 -12 40 -26 -27 -15 -22 -39 7 -39 23 0 24 -2 15 -20 -13 -23 -30 -26
-30 -5 0 8 -6 12 -14 9 -8 -3 -12 -12 -10 -19 3 -7 -3 -15 -13 -18 -16 -4 -15
-6 5 -12 18 -6 20 -10 10 -16 -10 -7 -8 -9 6 -9 15 0 17 -3 8 -12 -9 -9 -17
-7 -34 8 l-22 19 23 -30 c21 -28 21 -30 4 -36 -11 -5 -12 -8 -4 -8 11 -1 11
-4 0 -18 -10 -12 -11 -15 -1 -9 10 6 11 1 6 -20 -5 -19 -4 -25 5 -20 6 4 11
14 11 22 0 23 18 16 23 -8 4 -22 4 -22 6 2 l2 25 14 -25 14 -25 1 24 c0 22 1
23 13 8 11 -16 14 -15 42 7 l30 24 -38 18 c-41 20 -54 47 -42 92 12 46 5 125
-12 144 -22 24 -85 24 -106 0z"/>
<path d="M5737 6023 c-4 -3 -7 -15 -7 -25 0 -13 -15 -26 -45 -39 -52 -23 -56
-33 -18 -51 16 -7 36 -30 46 -51 9 -20 21 -37 26 -37 5 0 19 13 30 29 11 16
37 36 56 46 43 20 41 39 -3 43 -35 4 -62 34 -62 69 0 23 -10 30 -23 16z"/>
<path d="M5460 5833 c-31 -10 -70 -13 -122 -10 -42 3 -79 3 -82 0 -15 -15 12
-33 59 -38 l54 -7 -72 -58 c-75 -61 -130 -121 -186 -202 -30 -45 -35 -48 -75
-48 -70 0 -156 -75 -156 -136 0 -28 -8 -30 -24 -9 -6 8 -22 17 -36 20 -14 3
-38 11 -55 19 -109 51 -245 88 -245 66 0 -4 -26 -2 -57 5 -57 13 -113 10 -113
-6 0 -4 -17 -11 -37 -14 -21 -3 -48 -8 -60 -11 -24 -5 -73 -45 -73 -60 0 -6
-12 -11 -27 -12 -15 -1 -30 -7 -33 -12 -3 -6 -22 -22 -41 -35 -19 -14 -34 -29
-34 -33 0 -4 -4 -13 -9 -20 -5 -8 -9 -29 -11 -48 -1 -25 2 -34 14 -35 11 0 12
-2 3 -6 -35 -14 -41 -55 -37 -265 4 -197 11 -249 39 -272 7 -6 21 -31 31 -56
31 -74 38 -71 31 10 -12 138 -10 172 13 212 12 20 23 50 23 67 1 17 5 28 11
24 5 -3 13 0 18 8 10 16 -9 42 -24 32 -6 -3 -3 4 6 18 22 30 22 45 0 28 -15
-13 -15 -12 1 13 13 20 14 27 4 30 -9 3 -5 14 12 36 51 63 196 78 334 32 29
-9 50 -9 99 0 62 13 158 8 186 -9 7 -5 14 -26 15 -47 1 -35 -2 -39 -29 -45
-30 -7 -30 -7 -3 -8 44 -2 41 -19 -4 -27 l-43 -8 50 -6 c31 -3 49 -10 48 -17
-2 -6 7 -15 19 -18 31 -11 3 -25 -50 -25 -24 0 -53 -5 -65 -11 -26 -14 -56
-49 -57 -67 0 -7 -11 -25 -25 -40 -28 -30 -31 -60 -11 -100 7 -15 16 -49 19
-77 4 -27 9 -59 12 -70 4 -13 -2 -30 -18 -48 -22 -26 -28 -28 -73 -22 -52 6
-82 -5 -69 -25 5 -7 19 -10 40 -6 35 7 59 -9 30 -20 -13 -5 -12 -10 9 -31 20
-20 31 -23 58 -18 18 3 44 2 57 -3 19 -7 -1 -12 -96 -25 -66 -9 -137 -24 -157
-33 -29 -14 -40 -15 -61 -6 -21 10 -27 9 -31 -3 -8 -19 3 -35 20 -29 7 3 35
-16 62 -41 58 -54 105 -90 103 -78 -4 23 3 25 17 4 13 -18 18 -20 25 -10 7 11
9 11 9 1 0 -9 17 -12 59 -10 33 1 59 5 58 8 -1 3 2 6 8 8 5 2 11 -1 13 -6 4
-13 -67 -62 -91 -62 -10 0 -20 -6 -23 -14 -3 -8 -18 -16 -35 -20 -40 -8 -37
-32 9 -54 29 -15 49 -18 99 -13 35 4 68 12 75 19 16 16 28 15 28 -2 0 -23 -60
-90 -97 -108 -40 -20 -135 -22 -167 -4 -12 6 -41 29 -65 51 -24 22 -41 34 -37
28 15 -27 -20 -12 -50 21 -57 61 -85 104 -82 123 2 11 -2 17 -11 15 -8 -2 -11
3 -8 12 4 9 1 18 -5 22 -7 4 -8 3 -4 -4 4 -7 1 -12 -8 -12 -14 0 -20 12 -17
33 0 4 -3 7 -9 7 -13 0 -13 -1 11 -56 15 -36 58 -87 160 -189 77 -76 142 -150
145 -162 4 -13 10 -23 14 -23 5 0 11 -13 15 -29 6 -28 39 -47 156 -90 19 -7
28 -19 33 -43 11 -56 20 -64 51 -44 15 10 36 19 48 21 11 3 23 8 26 13 12 18
50 32 56 22 4 -7 14 -6 28 1 l22 11 -21 -20 c-11 -11 -34 -27 -51 -35 -28 -15
-62 -47 -49 -47 3 0 38 17 77 38 77 40 269 217 269 247 0 10 -61 35 -86 35
-15 0 -56 18 -91 41 -48 32 -63 47 -63 65 0 14 -9 80 -20 147 l-19 123 24 70
c14 38 25 79 25 92 0 12 7 39 16 60 23 53 39 291 20 306 -9 8 -16 46 -20 121
-6 125 -32 309 -47 336 -5 10 -18 24 -30 32 -17 12 -21 26 -21 80 0 74 21 128
61 156 28 19 75 34 83 26 3 -3 -3 -29 -13 -58 -12 -32 -18 -81 -19 -130 0 -74
2 -80 29 -108 37 -36 65 -37 100 -1 58 57 44 213 -25 293 -12 13 -10 22 17 64
56 88 201 225 295 278 7 4 -6 -28 -27 -71 -41 -82 -54 -137 -30 -137 7 0 23
27 36 62 23 66 73 149 105 178 11 10 20 24 20 32 0 16 -22 15 -80 -4z m-318
-536 c8 -37 9 -68 2 -93 -17 -69 -69 -72 -87 -4 -9 34 4 136 24 187 l10 27 20
-31 c11 -17 25 -56 31 -86z m-336 -605 c14 -9 24 -38 17 -46 -4 -3 -11 4 -17
16 -14 27 -41 35 -62 17 -24 -20 -12 -41 31 -55 l40 -12 -55 -1 -55 -2 32 -14
c40 -17 120 -21 153 -8 75 32 93 -68 28 -156 -46 -63 -64 -66 -116 -20 -66 58
-125 128 -128 152 -1 12 -6 30 -10 41 -6 16 -5 17 16 6 18 -10 21 -9 18 2 -7
17 17 64 39 77 21 12 54 14 69 3z"/>
<path d="M1722 4408 c-7 -7 -12 -37 -12 -68 0 -31 5 -61 12 -68 9 -9 100 -12
350 -12 l338 0 0 80 0 80 -338 0 c-250 0 -341 -3 -350 -12z"/>
<path d="M2200 3683 l-1 -38 -29 35 c-21 24 -30 30 -30 18 0 -9 11 -30 25 -47
l26 -30 -43 -3 c-24 -2 -42 -7 -40 -13 1 -5 20 -8 42 -6 45 3 45 3 25 -46 -8
-19 -15 -40 -15 -45 0 -17 21 3 34 35 l14 32 1 -28 c1 -35 21 -26 21 10 l0 25
19 -23 c11 -13 22 -21 26 -17 4 4 -3 20 -15 35 l-22 28 46 3 c56 4 61 22 6 22
-22 0 -40 3 -40 6 0 3 9 19 21 36 30 42 14 48 -21 7 l-29 -34 -1 32 c0 46 -20
52 -20 6z"/>
<path d="M5692 3373 c-21 -39 -32 -136 -37 -323 -5 -218 -13 -390 -21 -495 -3
-38 -7 -124 -9 -190 -3 -66 -7 -131 -10 -144 -2 -13 -7 -52 -11 -85 -10 -105
-12 -120 -18 -166 -4 -25 -9 -58 -11 -75 -3 -16 -6 -39 -7 -50 -2 -11 -7 -23
-13 -27 -6 -5 -5 -8 3 -8 7 0 10 -4 7 -10 -3 -5 -7 -29 -9 -52 -1 -24 -7 -52
-13 -62 -7 -13 -8 -29 -2 -43 7 -18 5 -23 -7 -23 -12 0 -15 -6 -10 -26 4 -15
3 -23 -3 -20 -12 8 -9 -13 7 -41 11 -19 10 -23 -2 -23 -10 0 -13 -6 -10 -15 4
-8 1 -15 -6 -15 -10 0 -10 -3 0 -15 6 -8 9 -19 6 -24 -4 -5 -10 -30 -15 -54
-7 -40 -6 -44 11 -39 20 5 25 -13 6 -22 -10 -5 -10 -7 0 -12 39 -18 -8 -24
-199 -24 -197 0 -211 1 -204 18 6 15 12 39 19 77 1 6 5 15 9 22 4 7 0 16 -10
22 -12 7 -13 10 -4 11 9 0 12 9 9 30 -3 16 0 30 5 30 5 0 7 7 3 15 -3 8 -1 15
5 15 6 0 7 6 2 13 -11 18 -4 49 15 64 16 12 16 13 0 7 -13 -4 -15 -1 -11 18 4
13 10 25 14 28 4 3 9 17 11 32 2 15 7 30 10 33 4 4 4 22 2 41 -3 26 0 34 11
34 8 0 14 3 13 8 -1 4 3 17 10 28 6 12 8 24 5 28 -3 3 -1 6 7 6 10 0 10 4 -1
17 -12 14 -12 16 1 11 11 -4 16 1 18 17 1 19 -2 22 -21 18 l-22 -4 23 13 c12
8 20 16 17 19 -2 3 0 21 6 40 12 42 17 61 29 122 5 26 14 56 20 67 5 10 7 26
4 34 -3 9 -2 16 2 16 5 0 10 19 12 43 1 23 7 44 12 45 6 2 8 8 4 13 -3 5 -1 9
4 9 6 0 8 8 5 18 -2 10 3 38 13 62 9 25 18 63 19 85 1 22 7 54 12 70 5 17 9
51 8 77 -1 36 2 48 14 51 12 4 11 5 -3 6 -18 1 -19 2 -1 21 15 17 16 24 6 47
-10 22 -10 24 1 16 10 -9 13 -2 12 32 0 24 -5 50 -11 57 -6 7 -7 22 -3 33 8
22 3 45 -10 45 -5 0 -6 -10 -3 -22 4 -19 3 -20 -7 -8 -9 12 -11 8 -6 -18 4
-20 2 -31 -4 -27 -10 6 -14 -6 -11 -37 1 -10 -4 -18 -11 -18 -9 0 -10 -2 -2
-8 9 -5 8 -11 -2 -20 -10 -10 -14 -10 -14 -1 0 7 -3 9 -6 6 -4 -4 -1 -13 6
-22 9 -11 9 -15 1 -15 -16 0 -42 -26 -34 -33 3 -4 15 -1 27 4 13 7 9 -1 -12
-20 -18 -17 -29 -31 -24 -31 14 0 7 -39 -11 -60 -10 -12 -12 -20 -5 -20 6 0 3
-9 -7 -20 -11 -12 -13 -20 -6 -20 8 0 9 -5 2 -17 -5 -10 -10 -21 -10 -25 -1
-4 -11 -29 -22 -55 -26 -61 -36 -86 -38 -96 0 -4 -7 -20 -15 -35 -7 -15 -13
-43 -13 -64 1 -20 -5 -43 -12 -52 -7 -9 -11 -23 -7 -31 3 -9 2 -13 -4 -10 -6
4 -13 -7 -16 -24 -4 -17 -12 -31 -19 -31 -12 0 -18 -14 -30 -79 -2 -12 -9 -29
-16 -37 -6 -8 -9 -21 -5 -29 3 -8 0 -15 -7 -15 -8 0 -6 -4 3 -10 9 -6 11 -10
3 -10 -7 0 -10 -6 -7 -14 3 -8 1 -17 -5 -20 -6 -4 -8 -13 -5 -20 3 -8 1 -17
-5 -21 -6 -3 -11 -19 -11 -35 0 -17 -7 -33 -17 -39 -16 -9 -16 -10 -2 -11 12
0 15 -7 11 -25 -2 -14 -9 -25 -14 -25 -6 0 -7 -7 -4 -16 3 -8 2 -12 -4 -9 -6
3 -11 1 -11 -4 -3 -21 -4 -26 -12 -38 -5 -7 -6 -17 -2 -22 3 -5 -2 -16 -10
-24 -10 -10 -11 -17 -4 -19 8 -3 6 -10 -5 -20 -9 -9 -12 -19 -8 -22 12 -7 7
-74 -8 -111 -6 -16 -13 -40 -13 -52 -1 -13 -5 -23 -9 -23 -5 0 -8 -13 -8 -29
0 -17 -5 -33 -11 -36 -6 -4 -8 -13 -5 -21 5 -12 -82 -14 -574 -14 l-579 0 -20
-26 c-20 -26 -21 -38 -21 -376 l0 -349 25 -24 24 -25 1421 0 1421 0 24 25 25
24 0 351 0 351 -25 24 c-21 22 -33 25 -99 25 l-75 0 2 183 c1 165 -1 192 -25
292 -15 61 -36 160 -48 220 -38 194 -100 466 -140 615 -21 80 -44 179 -50 220
-46 286 -87 446 -127 486 -29 28 -53 13 -78 -48 -13 -32 -22 -58 -20 -58 2 0
0 -13 -5 -30 -5 -19 -5 -30 1 -30 6 0 6 -7 -1 -19 -6 -13 -6 -21 0 -23 6 -2
13 -43 16 -93 3 -49 7 -103 9 -120 2 -16 6 -57 10 -90 3 -33 12 -114 19 -180
10 -89 11 -124 2 -134 -8 -11 -8 -13 1 -8 8 5 12 -11 15 -54 1 -33 0 -63 -5
-66 -4 -2 -4 -9 0 -16 4 -6 8 -29 10 -52 3 -22 6 -54 7 -71 2 -17 6 -36 10
-43 4 -6 3 -18 -3 -25 -9 -10 -8 -15 4 -19 17 -7 9 -37 -10 -37 -7 0 -15 -11
-17 -24 -4 -20 0 -26 20 -31 28 -7 65 -38 41 -34 -22 3 -49 -12 -49 -27 0 -8
4 -14 9 -14 13 0 44 -51 45 -75 1 -11 5 -27 10 -35 7 -12 6 -13 -5 -3 -7 7
-16 13 -20 13 -11 0 -4 -33 8 -37 6 -2 9 -13 6 -23 -3 -12 -10 -17 -17 -13 -6
4 -5 -1 3 -10 10 -13 10 -17 1 -17 -8 0 -11 -9 -8 -25 3 -14 1 -28 -4 -31 -5
-3 -4 -11 2 -19 7 -9 8 -15 1 -19 -6 -4 -7 -14 -4 -22 3 -9 1 -19 -6 -23 -6
-4 -9 -15 -5 -24 3 -9 10 -14 15 -11 15 9 10 -20 -7 -44 -14 -20 -14 -23 1
-28 9 -4 32 -2 50 3 18 6 60 10 92 9 50 -1 58 -4 61 -21 4 -28 -38 -81 -64
-79 -11 1 -21 -5 -21 -12 0 -13 11 -18 30 -15 12 2 8 -27 -10 -69 l-18 -40
-60 2 c-35 1 -46 3 -27 5 17 2 32 8 32 13 0 13 -66 29 -123 31 -25 1 -44 6
-41 11 8 12 -38 10 -69 -4 -15 -7 -30 -23 -33 -35 -6 -22 -11 -23 -90 -23 -46
0 -84 4 -84 8 0 5 13 44 29 88 15 43 36 110 46 147 10 37 21 64 25 60 4 -4 15
-28 24 -52 10 -25 31 -60 47 -78 16 -19 29 -43 29 -53 0 -11 5 -20 10 -20 13
0 13 -3 -10 65 -23 65 -24 79 -10 70 14 -9 13 7 -4 46 -10 24 -11 40 -4 59 5
14 16 48 23 75 12 44 12 51 -2 62 -12 9 -14 24 -9 65 11 102 -3 198 -29 198
-9 0 -10 13 -2 58 11 64 12 94 3 202 -4 41 -8 120 -10 176 -1 55 -6 105 -9
111 -4 6 -4 13 0 16 3 3 15 36 28 72 26 77 13 87 -41 30 -48 -51 -59 -46 -58
22 1 32 6 69 11 83 13 37 10 58 -11 73 -18 13 -18 15 3 55 l21 42 -21 0 c-21
0 -22 3 -16 75 6 63 4 73 -8 69 -9 -4 -16 0 -16 7 -1 8 -3 23 -4 34 -2 11 -7
67 -11 125 -3 58 -8 107 -10 108 -1 2 -7 -5 -12 -15z"/>
<path d="M3596 3346 c-10 -22 -29 -54 -42 -71 -13 -18 -24 -36 -24 -40 0 -5
-13 -29 -30 -55 -27 -43 -64 -139 -56 -148 2 -1 11 5 21 14 20 20 36 4 28 -27
-4 -16 0 -19 27 -19 40 0 67 24 50 45 -10 12 -9 23 3 53 21 53 49 212 45 253
l-4 34 -18 -39z"/>
<path d="M3681 3069 c-1 -22 -5 -26 -26 -24 -13 2 -24 0 -24 -3 3 -20 -2 -25
-11 -12 -8 13 -10 13 -10 -1 0 -29 -43 -41 -141 -39 -121 3 -120 3 -79 -19 19
-10 38 -17 43 -14 11 7 8 -15 -4 -22 -5 -4 -8 -12 -6 -18 2 -7 -15 -29 -37
-49 -22 -21 -36 -38 -31 -38 6 0 4 -4 -4 -9 -10 -6 -4 -12 22 -20 34 -11 57
-7 128 23 10 4 19 2 22 -7 5 -14 -11 -35 -67 -86 -14 -13 -26 -27 -26 -32 0
-14 57 -11 95 5 19 8 35 11 35 6 0 -16 -44 -34 -100 -41 l-55 -6 50 -1 c30 -1
67 6 93 18 42 19 42 19 42 -1 0 -29 -18 -59 -35 -59 -8 0 -15 4 -15 8 0 5 -13
7 -30 4 -16 -2 -62 4 -101 13 -60 15 -79 16 -124 6 -51 -12 -85 -34 -68 -44 4
-3 33 -8 63 -12 34 -5 86 -24 140 -52 70 -37 95 -46 142 -47 32 0 58 -4 58 -8
0 -4 -9 -23 -21 -42 -15 -26 -27 -35 -47 -34 -15 0 -33 -1 -41 -3 -9 -3 -24
13 -39 39 -26 47 -82 84 -152 102 -25 6 -61 17 -80 24 -31 12 -65 23 -125 40
-17 5 -20 1 -20 -23 0 -32 57 -111 79 -111 7 0 25 -12 40 -27 36 -35 66 -50
121 -57 26 -4 54 -11 63 -16 44 -24 92 -41 100 -36 5 3 9 0 9 -7 0 -7 2 -16 3
-22 8 -23 -21 -94 -40 -100 -11 -4 -25 -16 -31 -27 -9 -17 -18 -20 -56 -15
-25 3 -41 2 -36 -2 5 -3 13 -15 16 -25 6 -14 4 -16 -5 -9 -16 13 -48 13 -48 1
0 -5 -4 -7 -9 -4 -4 3 -16 -3 -26 -14 -17 -18 -16 -19 11 -14 16 3 35 11 43
17 12 10 14 9 8 -5 -3 -10 -2 -18 4 -18 6 0 8 -4 5 -9 -4 -5 0 -12 6 -14 8 -3
4 -6 -7 -7 -17 -2 -16 -3 5 -9 14 -4 40 -4 57 0 20 4 31 3 27 -2 -3 -6 5 -7
18 -4 19 5 27 1 36 -19 7 -16 8 -28 2 -31 -6 -4 -10 -12 -10 -20 0 -7 -25 -49
-55 -94 -30 -45 -55 -83 -55 -86 0 -2 -30 -46 -67 -98 -38 -52 -72 -102 -78
-111 -9 -16 -11 -16 -30 -1 -11 9 -13 13 -5 9 12 -6 13 -5 4 7 -6 8 -10 22 -9
32 2 9 -1 17 -7 17 -6 0 -7 7 -4 16 4 9 1 23 -5 30 -9 12 -15 12 -27 2 -9 -7
-13 -8 -10 -3 6 9 -23 44 -30 37 -2 -2 -6 -1 -10 2 -3 3 0 6 6 6 7 0 3 9 -8
20 -11 11 -25 20 -31 20 -5 0 -8 4 -5 9 3 5 -1 11 -9 15 -8 3 -15 12 -15 21 0
9 -9 25 -19 37 -20 20 -20 20 -7 -36 12 -51 7 -82 -9 -56 -3 5 -10 10 -16 10
-5 0 0 -9 11 -20 14 -14 18 -28 15 -43 -4 -13 3 -44 15 -71 11 -27 23 -71 25
-98 3 -28 7 -54 11 -59 12 -20 -15 -8 -30 13 -15 23 -15 22 -5 -7 12 -34 120
-149 161 -171 53 -28 88 -18 175 46 70 51 93 75 154 167 39 60 85 135 101 168
l30 60 -6 -50 c-3 -27 -8 -108 -11 -180 l-5 -130 15 65 c9 36 17 74 20 85 2
11 11 45 19 75 8 30 17 73 21 96 3 22 10 56 15 75 6 19 10 51 10 71 0 20 5 40
10 43 6 4 8 11 5 16 -4 5 -3 15 1 21 11 18 14 42 16 126 1 39 5 72 8 72 3 0 5
83 5 185 0 146 3 188 14 194 11 7 11 10 0 15 -11 5 -11 7 -1 12 6 3 9 10 6 16
-4 6 0 14 7 19 8 5 9 9 3 9 -14 0 -12 28 3 56 7 12 10 24 7 26 -10 11 -12 68
-2 68 7 0 7 4 -1 13 -6 8 -8 17 -4 21 15 14 10 36 -9 41 -18 6 -18 8 -4 30 14
22 14 24 -2 20 -12 -2 -18 3 -19 16 -1 10 3 19 8 19 6 0 7 5 4 10 -3 6 -15 10
-25 10 -19 0 -43 49 -60 122 -7 29 -8 30 -9 7z"/>
<path d="M636 2871 c-3 -4 -1 -35 4 -67 15 -90 14 -92 -33 -46 -60 59 -71 56
-63 -18 8 -65 24 -120 35 -120 16 0 19 12 11 43 -4 18 -11 46 -15 62 l-6 30
43 -42 c72 -71 83 -60 63 63 -8 49 -15 92 -15 97 0 10 -18 9 -24 -2z"/>
<path d="M3028 2020 c28 -41 67 -97 86 -125 19 -27 32 -53 29 -58 -2 -4 3 -10
11 -13 9 -3 16 -13 16 -21 0 -8 5 -11 10 -8 6 3 10 1 10 -5 0 -7 7 -9 16 -6
10 4 13 2 8 -6 -5 -8 -2 -9 9 -5 10 3 17 2 17 -2 0 -5 -6 -12 -12 -14 -9 -4
-8 -6 3 -6 8 -1 26 10 39 24 22 24 22 24 2 20 -15 -3 -19 0 -15 11 3 8 -8 28
-26 47 -60 63 -81 88 -81 98 0 5 -7 9 -17 9 -9 0 -13 3 -10 7 4 4 -5 19 -20
35 -18 19 -22 28 -12 29 16 0 -26 20 -55 26 -11 2 -29 11 -40 21 -10 9 4 -17
32 -58z"/>
<path d="M2123 2043 c-22 -8 -14 -28 23 -64 54 -52 126 -145 183 -237 121
-195 271 -512 271 -573 0 -15 5 -20 22 -17 21 3 21 6 23 218 3 368 37 482 173
569 26 17 58 44 71 62 l23 31 -23 -7 c-42 -13 -133 -72 -171 -112 -74 -76
-106 -197 -115 -428 l-6 -151 -80 156 c-43 85 -103 196 -133 247 -85 145 -232
317 -261 306z"/>
<path d="M1817 1704 c-4 -4 -7 -20 -7 -36 0 -46 -17 -67 -58 -73 -88 -15 -96
-33 -28 -63 24 -11 58 -38 77 -61 18 -23 40 -40 48 -39 9 2 22 23 31 48 12 37
22 48 58 65 52 24 51 45 -3 63 -50 17 -73 37 -77 70 -3 26 -26 40 -41 26z"/>
<path d="M2018 1070 c-103 -10 -218 -39 -225 -57 -11 -28 13 -31 87 -12 66 17
290 38 418 39 35 0 42 3 42 20 0 19 -6 20 -122 19 -68 -1 -158 -5 -200 -9z"/>
</g>
</svg>
